<svg width="814" height="725" viewBox="0 0 814 725" fill="none" xmlns="http://www.w3.org/2000/svg">
<path d="M625.597 49.8228C684.553 76.8635 743.51 102.702 761.59 141.761C780.456 180.219 758.446 232.498 770.237 289.584C782.029 346.67 828.408 409.164 809.542 447.622C791.462 486.079 707.35 500.501 636.602 537.757C565.854 575.013 507.683 634.503 418.069 676.566C328.454 718.029 207.397 741.464 120.927 711.419C34.4567 681.373 -17.4253 597.247 5.37133 516.726C28.1679 436.805 126.429 360.49 136.648 288.382C146.868 216.874 69.0446 149.573 80.836 115.321C92.6273 81.0699 194.033 80.469 270.284 61.8409C346.534 42.612 398.416 5.3559 453.443 0.548669C508.469 -4.25857 566.64 23.383 625.597 49.8228Z" fill="#210080" fill-opacity="0.2"/>
</svg>
