<?xml version="1.0" standalone="no"?>
<svg xmlns:xlink="http://www.w3.org/1999/xlink" id="wave" style="transform:rotate(0deg); transition: 0.3s" viewBox="0 0 1440 140" version="1.1" xmlns="http://www.w3.org/2000/svg"><defs><linearGradient id="sw-gradient-0" x1="0" x2="0" y1="1" y2="0"><stop stop-color="rgba(33, 0, 128, 1)" offset="0%"/><stop stop-color="rgba(128, 0, 255, 1)" offset="100%"/></linearGradient></defs><path style="transform:translate(0, 0px); opacity:1" fill="url(#sw-gradient-0)" d="M0,14L34.3,21C68.6,28,137,42,206,53.7C274.3,65,343,75,411,70C480,65,549,47,617,42C685.7,37,754,47,823,58.3C891.4,70,960,84,1029,93.3C1097.1,103,1166,107,1234,91C1302.9,75,1371,37,1440,35C1508.6,33,1577,65,1646,65.3C1714.3,65,1783,33,1851,35C1920,37,1989,75,2057,79.3C2125.7,84,2194,56,2263,49C2331.4,42,2400,56,2469,70C2537.1,84,2606,98,2674,88.7C2742.9,79,2811,47,2880,49C2948.6,51,3017,89,3086,107.3C3154.3,126,3223,126,3291,123.7C3360,121,3429,117,3497,116.7C3565.7,117,3634,121,3703,112C3771.4,103,3840,79,3909,77C3977.1,75,4046,93,4114,86.3C4182.9,79,4251,47,4320,44.3C4388.6,42,4457,70,4526,70C4594.3,70,4663,42,4731,32.7C4800,23,4869,33,4903,37.3L4937.1,42L4937.1,140L4902.9,140C4868.6,140,4800,140,4731,140C4662.9,140,4594,140,4526,140C4457.1,140,4389,140,4320,140C4251.4,140,4183,140,4114,140C4045.7,140,3977,140,3909,140C3840,140,3771,140,3703,140C3634.3,140,3566,140,3497,140C3428.6,140,3360,140,3291,140C3222.9,140,3154,140,3086,140C3017.1,140,2949,140,2880,140C2811.4,140,2743,140,2674,140C2605.7,140,2537,140,2469,140C2400,140,2331,140,2263,140C2194.3,140,2126,140,2057,140C1988.6,140,1920,140,1851,140C1782.9,140,1714,140,1646,140C1577.1,140,1509,140,1440,140C1371.4,140,1303,140,1234,140C1165.7,140,1097,140,1029,140C960,140,891,140,823,140C754.3,140,686,140,617,140C548.6,140,480,140,411,140C342.9,140,274,140,206,140C137.1,140,69,140,34,140L0,140Z"/></svg>